<svg width="200" height="200" viewBox="0 0 200 200" fill="none" xmlns="http://www.w3.org/2000/svg">
  <!-- Outer Circle -->
  <circle cx="100" cy="100" r="90" fill="none" stroke="#E5E7EB" stroke-width="2"/>
  
  <!-- Left Figure (Gold) -->
  <path d="M50 100 C50 70, 70 50, 100 50 C100 70, 80 90, 50 100 C50 130, 70 150, 100 150 C100 130, 80 110, 50 100 Z" fill="#F59E0B"/>
  <circle cx="70" cy="80" r="8" fill="#F59E0B"/>
  
  <!-- Right Figure (Green) -->
  <path d="M150 100 C150 70, 130 50, 100 50 C100 70, 120 90, 150 100 C150 130, 130 150, 100 150 C100 130, 120 110, 150 100 Z" fill="#10B981"/>
  <circle cx="130" cy="80" r="8" fill="#10B981"/>
  
  <!-- Heart in Center -->
  <path d="M100 70 C95 65, 85 65, 85 75 C85 85, 100 100, 100 100 C100 100, 115 85, 115 75 C115 65, 105 65, 100 70 Z" fill="#DC2626"/>
  
  <!-- Cross -->
  <rect x="95" y="30" width="10" height="40" fill="#8B5A3C" rx="2"/>
  <rect x="85" y="45" width="30" height="10" fill="#8B5A3C" rx="2"/>
  
  <!-- Bottom Heart -->
  <path d="M100 130 C95 125, 85 125, 85 135 C85 145, 100 160, 100 160 C100 160, 115 145, 115 135 C115 125, 105 125, 100 130 Z" fill="white"/>
</svg>